<?xml version="1.0" encoding="UTF-8" standalone="no"?>
<svg
   id="Layer_1"
   data-name="Layer 1"
   viewBox="0 0 4100 534.53997"
   version="1.1"
   sodipodi:docname="wordmark-white.svg"
   width="4100"
   height="534.53998"
   inkscape:version="1.2.2 (b0a8486541, 2022-12-01)"
   xmlns:inkscape="http://www.inkscape.org/namespaces/inkscape"
   xmlns:sodipodi="http://sodipodi.sourceforge.net/DTD/sodipodi-0.dtd"
   xmlns:xlink="http://www.w3.org/1999/xlink"
   xmlns="http://www.w3.org/2000/svg"
   xmlns:svg="http://www.w3.org/2000/svg"
   xmlns:rdf="http://www.w3.org/1999/02/22-rdf-syntax-ns#"
   xmlns:cc="http://creativecommons.org/ns#"
   xmlns:dc="http://purl.org/dc/elements/1.1/">
  <metadata
     id="metadata43">
    <rdf:RDF>
      <cc:Work
         rdf:about="">
        <dc:format>image/svg+xml</dc:format>
        <dc:type
           rdf:resource="http://purl.org/dc/dcmitype/StillImage" />
      </cc:Work>
    </rdf:RDF>
  </metadata>
  <sodipodi:namedview
     pagecolor="#ffffff"
     bordercolor="#666666"
     borderopacity="1"
     objecttolerance="10"
     gridtolerance="10"
     guidetolerance="10"
     inkscape:pageopacity="0"
     inkscape:pageshadow="2"
     inkscape:window-width="1920"
     inkscape:window-height="1084"
     id="namedview41"
     showgrid="false"
     inkscape:pagecheckerboard="true"
     inkscape:zoom="0.49125741"
     inkscape:cx="996.42262"
     inkscape:cy="589.30408"
     inkscape:window-x="0"
     inkscape:window-y="0"
     inkscape:window-maximized="1"
     inkscape:current-layer="Layer_1"
     fit-margin-top="0"
     fit-margin-left="0"
     fit-margin-right="0"
     fit-margin-bottom="0"
     showguides="true"
     inkscape:showpageshadow="2"
     inkscape:deskcolor="#d1d1d1" />
  <defs
     id="defs18">
    <rect
       x="616.72448"
       y="8.2837238"
       width="3659.5664"
       height="531.70996"
       id="rect336" />
    <style
       id="style2">.cls-1{fill:url(#linear-gradient);}.cls-2{fill:url(#linear-gradient-2);}.cls-3{fill:url(#linear-gradient-3);}.cls-4{fill:url(#linear-gradient-4);}.cls-5{fill:url(#linear-gradient-5);}.cls-6{fill:url(#linear-gradient-6);}.cls-7{fill:url(#linear-gradient-7);}.cls-8{fill:url(#linear-gradient-8);}.cls-9{fill:url(#linear-gradient-9);}.cls-10{fill:url(#linear-gradient-10);}</style>
    <linearGradient
       id="linear-gradient"
       x1="640.97998"
       y1="235.19"
       x2="640.97998"
       y2="763.20001"
       gradientUnits="userSpaceOnUse">
      <stop
         offset="0"
         stop-color="#791fe2"
         id="stop4" />
      <stop
         offset="1"
         stop-color="#4a00e0"
         id="stop6" />
    </linearGradient>
    <linearGradient
       id="linear-gradient-2"
       x1="352.81"
       y1="235.19"
       x2="352.81"
       y2="763.20001"
       xlink:href="#linear-gradient"
       gradientTransform="translate(-263.23292,-232.75001)" />
    <linearGradient
       id="linear-gradient-3"
       x1="495.45001"
       y1="235.19"
       x2="495.45001"
       y2="763.20001"
       xlink:href="#linear-gradient"
       gradientTransform="translate(-263.23292,-232.75001)" />
    <linearGradient
       id="linear-gradient-4"
       x1="404.97"
       y1="235.19"
       x2="404.97"
       y2="763.20001"
       xlink:href="#linear-gradient"
       gradientTransform="translate(-263.23292,-232.75001)" />
    <linearGradient
       id="linear-gradient-5"
       x1="512.03003"
       y1="235.19"
       x2="512.03003"
       y2="763.20001"
       xlink:href="#linear-gradient"
       gradientTransform="translate(-263.23292,-232.75001)" />
    <linearGradient
       id="linear-gradient-6"
       x1="501.16"
       y1="235.19"
       x2="501.16"
       y2="763.20001"
       xlink:href="#linear-gradient"
       gradientTransform="translate(-263.23292,-232.75001)" />
    <linearGradient
       id="linear-gradient-7"
       x1="650.01001"
       y1="235.19"
       x2="650.01001"
       y2="763.20001"
       xlink:href="#linear-gradient"
       gradientTransform="translate(-263.23292,-232.75001)" />
    <linearGradient
       id="linear-gradient-8"
       x1="605.62"
       y1="235.19"
       x2="605.62"
       y2="763.20001"
       xlink:href="#linear-gradient"
       gradientTransform="translate(-263.23292,-232.75001)" />
    <linearGradient
       id="linear-gradient-9"
       x1="632.51001"
       y1="235.19"
       x2="632.51001"
       y2="763.20001"
       xlink:href="#linear-gradient"
       gradientTransform="translate(-263.23292,-232.75001)" />
    <linearGradient
       id="linear-gradient-10"
       x1="427.72"
       y1="2.48"
       x2="427.72"
       y2="530.48999"
       xlink:href="#linear-gradient" />
  </defs>
  <path
     class="cls-1"
     d="m 337.76708,165.05999 c 0.0102,16.60414 10.27734,31.47553 25.8,37.37 v 59.16 c 0,7.81483 6.33517,14.14999 14.15,14.14999 7.81483,0 14.15,-6.33516 14.15,-14.14999 v -59.16 c 13.92624,-5.24573 23.78914,-17.78891 25.60193,-32.5594 1.81279,-14.77048 -4.72426,-29.3261 -16.96853,-37.78393 -26.55575,-18.34359 -62.7838,0.6967 -62.7334,32.97333 z"
     id="path20"
     inkscape:connector-curvature="0"
     style="fill:#e5e5e5;fill-opacity:1"
     sodipodi:nodetypes="ccssscssc" />
  <path
     class="cls-2"
     d="m 62.577073,189.99998 c -0.04888,-38.26864 6.288138,-76.27722 18.75,-112.45999 l -33.93,13.95 c -4.078178,14.96557 -7.214326,30.17205 -9.39,45.52999 -5.921694,41.83961 -4.785948,84.37601 3.36,125.84 11.946537,60.50011 38.905483,117.02793 78.400007,164.39 4.97057,6.02819 13.88681,6.88556 19.915,1.915 6.02818,-4.97057 6.88557,-13.88681 1.915,-19.915 -51.271894,-61.53496 -79.24675,-139.1544 -79.020007,-219.25 z"
     id="path22"
     inkscape:connector-curvature="0"
     style="fill:#e5e5e5;fill-opacity:1"
     sodipodi:nodetypes="ccccccscc" />
  <path
     class="cls-3"
     d="m 183.20708,451.44999 c -5.91446,-5.3062 -15.03746,-4.70336 -20.20229,1.33492 -5.16484,6.03829 -4.34645,15.14448 1.81229,20.16508 25.73103,22.05046 54.36862,40.4625 85.11,54.72 1.18,0.54 14.15,6.33 15.33,6.87 9,-3.34 29,-11.09 39.36,-16.08 -2.39,-0.84 -17.43,-6 -19.8,-6.85 -37.10876,-13.996 -71.4935,-34.35409 -101.61,-60.16 z"
     id="path24"
     inkscape:connector-curvature="0"
     style="fill:#e5e5e5;fill-opacity:1"
     sodipodi:nodetypes="cscccccc" />
  <path
     class="cls-4"
     d="m 124.95709,174.96998 v 0 c 4.81036,-1.97563 8.13743,-6.44506 8.65,-11.62 4.27071,-44.70182 19.55287,-87.648543 44.47999,-124.99999 v 0 l -42.83,17.62 -0.29,0.62 c -16.05059,32.580529 -26.04956,67.80563 -29.51,103.95999 -1.01555,10.6213 9.64222,18.50258 19.50001,14.42 z"
     id="path26"
     inkscape:connector-curvature="0"
     style="fill:#e5e5e5;fill-opacity:1"
     sodipodi:nodetypes="ccccccccc" />
  <path
     class="cls-5"
     d="m 212.76708,384.46999 c -43.94787,-43.68755 -71.68723,-101.05341 -78.63999,-162.63 -1.06192,-9.33609 -10.76606,-15.05879 -19.45001,-11.47 v 0 c -5.839,2.42375 -9.37029,8.41796 -8.66,14.7 14.66376,126.4617 106.74222,230.30659 230.54,260 2.69,0.63 15,3.33 21.21,4.45 8.8,-5.78 17.26,-11.87 25.38,-18.27 2.9,-2.26667 5.75333,-4.6 8.56,-7 -5.67,-0.26 -18.78,-1.48 -21.81,-1.89 -59.52803,-7.94137 -114.76601,-35.32307 -157.13,-77.89 z"
     id="path28"
     inkscape:connector-curvature="0"
     style="fill:#e5e5e5;fill-opacity:1"
     sodipodi:nodetypes="ccccccccccc" />
  <path
     class="cls-6"
     d="m 241.48708,355.70998 c 5.80485,5.79567 11.90638,11.28638 18.28,16.45 4.0309,3.26539 9.52396,4.0671 14.32,2.09 v 0 c 9.8917,-4.06702 11.85417,-17.22324 3.58,-24 -6.22806,-5.05242 -12.16114,-10.45796 -17.77,-16.19 C 215.72886,288.7711 194.83222,225.69166 203.22598,162.99031 211.61973,100.28896 248.372,44.926916 302.89708,12.84999 l -30.81,-12.60000112 -0.6,-0.249999989619 -1.4,0.569999989619 v 0 C 259.9308,7.9355527 250.37421,16.094428 241.50708,24.96999 c -91.33393,91.34196 -91.33393,239.42802 0,330.76999 z"
     id="path30"
     inkscape:connector-curvature="0"
     style="fill:#e5e5e5;fill-opacity:1"
     sodipodi:nodetypes="ccccccscccccccc" />
  <path
     class="cls-7"
     d="m 406.87708,395.91999 c -23.99091,0.0316 -47.80267,-4.13105 -70.36,-12.3 -3.33242,-1.21761 -7.00008,-1.14268 -10.28,0.21 v 0 c -11.93973,4.93851 -11.55858,21.98024 0.59,26.38 25.66102,9.30558 52.75385,14.04387 80.05,14 2.46,0 4.9,0 7.34,-0.1 2.44,-0.1 12.24,-0.42 18.2,-0.83 6.53063,-7.91757 12.65517,-16.16151 18.35,-24.7 1.82,-2.73333 3.59333,-5.49667 5.32,-8.29 -5.63,1.14 -15.15,2.85 -17.19,3.16 -10.59318,1.65198 -21.29878,2.4778 -32.02,2.47 z"
     id="path32"
     inkscape:connector-curvature="0"
     style="fill:#e5e5e5;fill-opacity:1"
     sodipodi:nodetypes="ccccccsccccc" />
  <path
     class="cls-8"
     d="m 285.57708,79.37999 c -10.15,11.14 2,28.29999 15.91,22.53999 v 0 c 1.90302,-0.76754 3.61109,-1.949522 5,-3.45999 24.79237,-27.342041 59.6114,-43.46343 96.5,-44.68 l -48.06,-19.77 c -26.59552,8.986458 -50.46289,24.600915 -69.35,45.37 z"
     id="path34"
     inkscape:connector-curvature="0"
     style="fill:#e5e5e5;fill-opacity:1"
     sodipodi:nodetypes="ccccccc" />
  <path
     class="cls-9"
     d="m 410.17708,326.91999 c -75.71,1.46 -138.67,-59.74 -139.29,-135.46 -0.0629,-7.77265 0.52919,-15.53678 1.77,-23.21 0.72471,-7.44015 -4.46291,-14.16049 -11.84407,-15.34349 -7.38116,-1.183 -14.40917,3.57952 -16.04593,10.87349 -1.39786,8.56643 -2.11344,17.23031 -2.14,25.91 -0.38,90.56 73.24,164.96 163.79,165.56 22.33961,0.17286 44.479,-4.22031 65.06,-12.91 0.76,-0.31 6.27,-2.88 11,-5.13 4.06667,-10.44 7.69667,-21.27333 10.89,-32.5 0.88667,-3.14 1.74,-6.30667 2.56,-9.5 -4,2.78 -10.88,7.54 -12.34,8.53 -21.72308,14.64333 -47.21683,22.69326 -73.41,23.18 z"
     id="path36"
     inkscape:connector-curvature="0"
     style="fill:#e5e5e5;fill-opacity:1"
     sodipodi:nodetypes="cccsccccccccc" />
  <polygon
     class="cls-10"
     points="384.79,93.23 441.81,115.86 441.24,261.73 470.07,244.12 470.64,95.08 419.08,74.25 "
     id="polygon38"
     style="fill:#e5e5e5;fill-opacity:1"
     transform="translate(34.277073,-0.04001114)" />
  <g
     aria-label="GLITCHSECURE"
     style="font-style:normal;font-weight:normal;font-size:40px;line-height:1.25;font-family:sans-serif;letter-spacing:0px;word-spacing:0px;fill:#e5e5e5;fill-opacity:1;stroke:none"
     id="text1604"
     transform="translate(-20.12179)">
    <g
       aria-label="GLITCHSECURE"
       transform="translate(-24.721409,7.3242257)"
       id="text334"
       style="font-size:466.667px;white-space:pre;shape-inside:url(#rect336);fill:#e5e5e5;fill-opacity:1">
      <path
         d="m 870.11458,203.41635 h 60.85223 C 920.82477,138.70049 864.80208,93.624762 791.876,93.624762 c -86.28782,0 -151.00368,63.427988 -151.00368,169.677908 0,104.31811 61.81814,169.03397 152.77451,169.03397 81.61926,0 140.05672,-52.48102 140.05672,-137.48096 V 255.25343 H 799.92524 v 46.68558 h 75.98479 c -0.96591,47.00754 -32.35793,76.78971 -81.94123,76.78971 -55.21776,0 -93.04918,-41.37307 -93.04918,-116.06999 0,-74.21396 38.47536,-115.42605 91.7613,-115.42605 39.76323,0 66.80867,21.24998 77.43366,56.18367 z"
         style="font-weight:600;font-size:453.333px;font-family:Inter;-inkscape-font-specification:'Inter Semi-Bold';fill:#e5e5e5;fill-opacity:1"
         id="path1081" />
      <path
         d="M 991.49746,427.82907 H 1196.431 V 377.76282 H 1051.2228 V 98.132335 h -59.72534 z"
         style="font-weight:600;font-size:453.333px;font-family:Inter;-inkscape-font-specification:'Inter Semi-Bold';fill:#e5e5e5;fill-opacity:1"
         id="path1083" />
      <path
         d="m 1307.8326,98.132335 h -59.7253 V 427.82907 h 59.7253 z"
         style="font-weight:600;font-size:453.333px;font-family:Inter;-inkscape-font-specification:'Inter Semi-Bold';fill:#e5e5e5;fill-opacity:1"
         id="path1085" />
      <path
         d="m 1358.2211,148.19859 h 101.9033 v 279.63048 h 59.2424 V 148.19859 h 101.9033 V 98.132335 h -263.049 z"
         style="font-weight:600;font-size:453.333px;font-family:Inter;-inkscape-font-specification:'Inter Semi-Bold';fill:#e5e5e5;fill-opacity:1"
         id="path1087" />
      <path
         d="m 1939.6983,209.37279 c -10.142,-73.24806 -66.4867,-115.748028 -139.5738,-115.748028 -86.1268,0 -151.0036,62.784048 -151.0036,169.355938 0,106.41091 64.0719,169.35594 151.0036,169.35594 78.3996,0 130.3977,-50.71019 139.5738,-113.65522 l -60.2083,-0.32197 c -7.5663,38.63634 -39.1193,60.36927 -78.5605,60.36927 -53.447,0 -91.7613,-40.08519 -91.7613,-115.74802 0,-74.37495 37.9924,-115.74802 91.9222,-115.74802 40.0852,0 71.4773,22.69885 78.3996,62.14011 z"
         style="font-weight:600;font-size:453.333px;font-family:Inter;-inkscape-font-specification:'Inter Semi-Bold';fill:#e5e5e5;fill-opacity:1"
         id="path1089" />
      <path
         d="m 1994.5944,427.82907 h 59.7253 V 287.77235 h 152.7745 v 140.05672 h 59.8863 V 98.132335 h -59.8863 V 237.7061 H 2054.3197 V 98.132335 h -59.7253 z"
         style="font-weight:600;font-size:453.333px;font-family:Inter;-inkscape-font-specification:'Inter Semi-Bold';fill:#e5e5e5;fill-opacity:1"
         id="path1091" />
      <path
         d="m 2519.5656,180.55652 h 38.6364 c -1.7709,-49.74428 -47.6515,-86.931758 -111.4015,-86.931758 -63.106,0 -112.6893,36.704518 -112.6893,92.083268 0,44.43179 32.1969,70.83328 83.7121,85.64388 l 40.5681,11.5909 c 34.7727,9.65908 65.6818,21.89392 65.6818,54.73481 0,36.06058 -34.7727,59.88632 -80.4924,59.88632 -39.2803,0 -74.053,-17.38635 -77.2727,-54.73481 h -41.212 c 3.8636,54.09087 47.6514,90.79539 118.4847,90.79539 75.9848,0 119.1287,-41.85603 119.1287,-95.30296 0,-61.81814 -58.5984,-81.78025 -92.7272,-90.79539 l -33.4848,-9.01515 c -24.4697,-6.43939 -63.75,-19.31817 -63.75,-54.73481 0,-31.553 28.9773,-54.73481 72.7651,-54.73481 39.9243,0 70.1894,18.9962 74.053,51.51512 z"
         style="font-size:453.333px;font-family:Inter;-inkscape-font-specification:Inter;fill:#e5e5e5;fill-opacity:1"
         id="path1093" />
      <path
         d="m 2628.3916,427.82907 h 201.5529 V 392.41243 H 2668.3158 V 280.36705 h 148.7499 V 244.95041 H 2668.3158 V 133.54898 h 159.053 V 98.132335 h -198.9772 z"
         style="font-size:453.333px;font-family:Inter;-inkscape-font-specification:Inter;fill:#e5e5e5;fill-opacity:1"
         id="path1095" />
      <path
         d="M 3164.7927,201.16256 C 3152.5579,133.54898 3098.467,93.624762 3032.1413,93.624762 c -84.356,0 -145.5302,65.037828 -145.5302,169.355938 0,104.31811 61.1742,169.35594 145.5302,169.35594 66.3257,0 120.4166,-39.92421 132.6514,-107.5378 h -39.9242 c -9.6591,45.71966 -48.9393,70.18934 -92.7272,70.18934 -59.8863,0 -106.8939,-46.3636 -106.8939,-132.00748 0,-85.64388 47.0076,-132.00748 106.8939,-132.00748 43.7879,0 83.0681,24.46968 92.7272,70.18934 z"
         style="font-size:453.333px;font-family:Inter;-inkscape-font-specification:Inter;fill:#e5e5e5;fill-opacity:1"
         id="path1097" />
      <path
         d="M 3445.5497,98.132335 V 313.20794 c 0,48.29542 -33.1629,83.06812 -88.2197,83.06812 -55.0568,0 -88.2196,-34.7727 -88.2196,-83.06812 V 98.132335 h -39.9242 V 316.42763 c 0,67.61359 50.5492,117.19689 128.1438,117.19689 77.5947,0 128.1439,-49.5833 128.1439,-117.19689 V 98.132335 Z"
         style="font-size:453.333px;font-family:Inter;-inkscape-font-specification:Inter;fill:#e5e5e5;fill-opacity:1"
         id="path1099" />
      <path
         d="m 3565.3227,427.82907 h 39.9242 V 299.04128 h 72.1211 c 2.8978,0 5.6345,0 8.3712,-0.16098 l 69.5454,128.94877 h 46.3636 l -74.5359,-136.19309 c 42.017,-14.32764 61.6572,-48.61739 61.6572,-92.40523 0,-58.27648 -34.7727,-101.098415 -112.0454,-101.098415 H 3565.3227 Z M 3605.2469,262.9807 V 133.54898 h 70.1893 c 53.4469,0 74.053,26.07952 74.053,65.68177 0,39.60224 -20.6061,63.74995 -73.4091,63.74995 z"
         style="font-size:453.333px;font-family:Inter;-inkscape-font-specification:Inter;fill:#e5e5e5;fill-opacity:1"
         id="path1101" />
      <path
         d="m 3855.0949,427.82907 h 201.5529 V 392.41243 H 3895.0191 V 280.36705 H 4043.769 V 244.95041 H 3895.0191 V 133.54898 H 4054.072 V 98.132335 h -198.9771 z"
         style="font-size:453.333px;font-family:Inter;-inkscape-font-specification:Inter;fill:#e5e5e5;fill-opacity:1"
         id="path1103" />
    </g>
  </g>
  <flowRoot
     xml:space="preserve"
     id="flowRoot845"
     style="font-style:normal;font-weight:normal;font-size:40px;line-height:1.25;font-family:sans-serif;letter-spacing:0px;word-spacing:0px;fill:#e5e5e5;fill-opacity:1;stroke:none"
     transform="translate(2.2433383,-0.04002184)"><flowRegion
       id="flowRegion847"
       style="fill:#e5e5e5;fill-opacity:1"><rect
         id="rect849"
         width="3808.811"
         height="51.253975"
         x="1995.7017"
         y="303.92712"
         style="fill:#e5e5e5;fill-opacity:1" /></flowRegion><flowPara
       id="flowPara851" /></flowRoot>
  <flowRoot
     xml:space="preserve"
     id="flowRoot855"
     style="font-style:normal;font-weight:normal;font-size:40px;line-height:1.25;font-family:sans-serif;letter-spacing:0px;word-spacing:0px;fill:#e5e5e5;fill-opacity:1;stroke:none"
     transform="translate(2.2433383,-0.04002184)"><flowRegion
       id="flowRegion857"
       style="fill:#e5e5e5;fill-opacity:1"><rect
         id="rect859"
         width="137.74506"
         height="54.457352"
         x="560.59039"
         y="428.85867"
         style="fill:#e5e5e5;fill-opacity:1" /></flowRegion><flowPara
       id="flowPara861" /></flowRoot>
  <flowRoot
     xml:space="preserve"
     id="flowRoot863"
     style="font-style:normal;font-weight:normal;font-size:40px;line-height:1.25;font-family:sans-serif;letter-spacing:0px;word-spacing:0px;fill:#e5e5e5;fill-opacity:1;stroke:none"
     transform="translate(2.2433383,-0.04002184)"><flowRegion
       id="flowRegion865"
       style="fill:#e5e5e5;fill-opacity:1"><rect
         id="rect867"
         width="60.864098"
         height="89.694458"
         x="2796.5452"
         y="521.75653"
         style="fill:#e5e5e5;fill-opacity:1" /></flowRegion><flowPara
       id="flowPara869" /></flowRoot>
</svg>
