<?xml version="1.0" encoding="UTF-8" standalone="no"?>
<svg
   id="Layer_1"
   data-name="Layer 1"
   viewBox="0 0 534.57001 534.57"
   version="1.1"
   sodipodi:docname="icon-black.svg"
   width="534.57001"
   height="534.57001"
   inkscape:version="1.1.2 (0a00cf5339, 2022-02-04)"
   xmlns:inkscape="http://www.inkscape.org/namespaces/inkscape"
   xmlns:sodipodi="http://sodipodi.sourceforge.net/DTD/sodipodi-0.dtd"
   xmlns:xlink="http://www.w3.org/1999/xlink"
   xmlns="http://www.w3.org/2000/svg"
   xmlns:svg="http://www.w3.org/2000/svg"
   xmlns:rdf="http://www.w3.org/1999/02/22-rdf-syntax-ns#"
   xmlns:cc="http://creativecommons.org/ns#"
   xmlns:dc="http://purl.org/dc/elements/1.1/">
  <metadata
     id="metadata43">
    <rdf:RDF>
      <cc:Work
         rdf:about="">
        <dc:format>image/svg+xml</dc:format>
        <dc:type
           rdf:resource="http://purl.org/dc/dcmitype/StillImage" />
      </cc:Work>
    </rdf:RDF>
  </metadata>
  <sodipodi:namedview
     pagecolor="#ffffff"
     bordercolor="#666666"
     borderopacity="1"
     objecttolerance="10"
     gridtolerance="10"
     guidetolerance="10"
     inkscape:pageopacity="0"
     inkscape:pageshadow="2"
     inkscape:window-width="1278"
     inkscape:window-height="1119"
     id="namedview41"
     showgrid="false"
     inkscape:pagecheckerboard="true"
     inkscape:zoom="1.2486836"
     inkscape:cx="138.14548"
     inkscape:cy="422.44489"
     inkscape:window-x="640"
     inkscape:window-y="25"
     inkscape:window-maximized="0"
     inkscape:current-layer="Layer_1" />
  <defs
     id="defs18">
    <style
       id="style2">.cls-1{fill:url(#linear-gradient);}.cls-2{fill:url(#linear-gradient-2);}.cls-3{fill:url(#linear-gradient-3);}.cls-4{fill:url(#linear-gradient-4);}.cls-5{fill:url(#linear-gradient-5);}.cls-6{fill:url(#linear-gradient-6);}.cls-7{fill:url(#linear-gradient-7);}.cls-8{fill:url(#linear-gradient-8);}.cls-9{fill:url(#linear-gradient-9);}.cls-10{fill:url(#linear-gradient-10);}</style>
    <linearGradient
       id="linear-gradient"
       x1="640.97998"
       y1="235.19"
       x2="640.97998"
       y2="763.20001"
       gradientUnits="userSpaceOnUse">
      <stop
         offset="0"
         stop-color="#791fe2"
         id="stop4" />
      <stop
         offset="1"
         stop-color="#4a00e0"
         id="stop6" />
    </linearGradient>
    <linearGradient
       id="linear-gradient-2"
       x1="352.81"
       y1="235.19"
       x2="352.81"
       y2="763.20001"
       xlink:href="#linear-gradient"
       gradientTransform="translate(-265.47626,-232.71)" />
    <linearGradient
       id="linear-gradient-3"
       x1="495.45001"
       y1="235.19"
       x2="495.45001"
       y2="763.20001"
       xlink:href="#linear-gradient"
       gradientTransform="translate(-265.47626,-232.71)" />
    <linearGradient
       id="linear-gradient-4"
       x1="404.97"
       y1="235.19"
       x2="404.97"
       y2="763.20001"
       xlink:href="#linear-gradient"
       gradientTransform="translate(-265.47626,-232.71)" />
    <linearGradient
       id="linear-gradient-5"
       x1="512.03003"
       y1="235.19"
       x2="512.03003"
       y2="763.20001"
       xlink:href="#linear-gradient"
       gradientTransform="translate(-265.47626,-232.71)" />
    <linearGradient
       id="linear-gradient-6"
       x1="501.16"
       y1="235.19"
       x2="501.16"
       y2="763.20001"
       xlink:href="#linear-gradient"
       gradientTransform="translate(-265.47626,-232.71)" />
    <linearGradient
       id="linear-gradient-7"
       x1="650.01001"
       y1="235.19"
       x2="650.01001"
       y2="763.20001"
       xlink:href="#linear-gradient"
       gradientTransform="translate(-265.47626,-232.71)" />
    <linearGradient
       id="linear-gradient-8"
       x1="605.62"
       y1="235.19"
       x2="605.62"
       y2="763.20001"
       xlink:href="#linear-gradient"
       gradientTransform="translate(-265.47626,-232.71)" />
    <linearGradient
       id="linear-gradient-9"
       x1="632.51001"
       y1="235.19"
       x2="632.51001"
       y2="763.20001"
       xlink:href="#linear-gradient"
       gradientTransform="translate(-265.47626,-232.71)" />
    <linearGradient
       id="linear-gradient-10"
       x1="427.72"
       y1="2.48"
       x2="427.72"
       y2="530.48999"
       xlink:href="#linear-gradient" />
  </defs>
  <path
     class="cls-1"
     d="m 335.52374,165.1 c 0.0102,16.60414 10.27734,31.47553 25.8,37.37 v 59.16 c 0,7.81483 6.33517,14.14999 14.15,14.14999 7.81483,0 14.15,-6.33516 14.15,-14.14999 v -59.16 c 13.92624,-5.24573 23.78914,-17.78891 25.60193,-32.5594 1.81279,-14.77048 -4.72426,-29.3261 -16.96853,-37.78393 -26.55575,-18.34359 -62.7838,0.6967 -62.7334,32.97333 z"
     id="path20"
     inkscape:connector-curvature="0"
     style="fill:#171717;fill-opacity:1"
     sodipodi:nodetypes="ccssscssc" />
  <path
     class="cls-2"
     d="m 60.333735,190.04 c -0.04888,-38.26864 6.288138,-76.27722 18.75,-112.459994 l -33.93,13.95 c -4.078178,14.965574 -7.214326,30.172054 -9.39,45.529994 -5.921694,41.83961 -4.785948,84.37601 3.36,125.84 11.946537,60.50011 38.905483,117.02793 78.400005,164.39 4.97056,6.02819 13.8868,6.88556 19.915,1.915 6.02818,-4.97057 6.88557,-13.88681 1.915,-19.915 C 88.081851,347.75504 60.106992,270.1356 60.333735,190.04 Z"
     id="path22"
     inkscape:connector-curvature="0"
     style="fill:#171717;fill-opacity:1"
     sodipodi:nodetypes="ccccccscc" />
  <path
     class="cls-3"
     d="m 180.96374,451.49 c -5.91446,-5.3062 -15.03746,-4.70336 -20.20229,1.33492 -5.16484,6.03829 -4.34645,15.14448 1.81229,20.16508 25.73103,22.05046 54.36862,40.4625 85.11,54.72 1.18,0.54 14.15,6.33 15.33,6.87 9,-3.34 29,-11.09 39.36,-16.08 -2.39,-0.84 -17.43,-6 -19.8,-6.85 -37.10876,-13.996 -71.4935,-34.35409 -101.61,-60.16 z"
     id="path24"
     inkscape:connector-curvature="0"
     style="fill:#171717;fill-opacity:1"
     sodipodi:nodetypes="cscccccc" />
  <path
     class="cls-4"
     d="m 122.71374,175.01 v 0 c 4.81036,-1.97563 8.13743,-6.44506 8.65,-11.62 4.27072,-44.70182 19.55288,-87.648547 44.48,-124.999994 v 0 l -42.83,17.62 -0.29,0.62 c -16.05059,32.580529 -26.04956,67.805634 -29.51,103.959994 -1.01555,10.6213 9.64222,18.50258 19.5,14.42 z"
     id="path26"
     inkscape:connector-curvature="0"
     style="fill:#171717;fill-opacity:1"
     sodipodi:nodetypes="ccccccccc" />
  <path
     class="cls-5"
     d="m 210.52374,384.51 c -43.94787,-43.68755 -71.68723,-101.05341 -78.64,-162.63 -1.06192,-9.33609 -10.76606,-15.05879 -19.45,-11.47 v 0 c -5.839,2.42375 -9.37029,8.41796 -8.66,14.7 14.66376,126.4617 106.74222,230.30659 230.54,260 2.69,0.63 15,3.33 21.21,4.45 8.8,-5.78 17.26,-11.87 25.38,-18.27 2.9,-2.26667 5.75333,-4.6 8.56,-7 -5.67,-0.26 -18.78,-1.48 -21.81,-1.89 -59.52803,-7.94137 -114.76601,-35.32307 -157.13,-77.89 z"
     id="path28"
     inkscape:connector-curvature="0"
     style="fill:#171717;fill-opacity:1"
     sodipodi:nodetypes="ccccccccccc" />
  <path
     class="cls-6"
     d="m 239.24374,355.75 c 5.80485,5.79567 11.90638,11.28638 18.28,16.45 4.0309,3.26539 9.52396,4.0671 14.32,2.09 v 0 c 9.8917,-4.06702 11.85417,-17.22324 3.58,-24 -6.22806,-5.05242 -12.16114,-10.45796 -17.77,-16.19 -44.16822,-45.28888 -65.06486,-108.36832 -56.6711,-171.06967 8.39375,-62.70135 45.14602,-118.063398 99.6711,-150.140324 l -30.81,-12.60000064 -0.6,-0.25 -1.4,0.57 v 0 c -10.15628,7.36556374 -19.71287,15.52443864 -28.58,24.40000064 -91.33393,91.341964 -91.33393,239.428024 0,330.769994 z"
     id="path30"
     inkscape:connector-curvature="0"
     style="fill:#171717;fill-opacity:1"
     sodipodi:nodetypes="ccccccscccccccc" />
  <path
     class="cls-7"
     d="m 404.63374,395.96 c -23.99091,0.0316 -47.80267,-4.13105 -70.36,-12.3 -3.33242,-1.21761 -7.00008,-1.14268 -10.28,0.21 v 0 c -11.93973,4.93851 -11.55858,21.98024 0.59,26.38 25.66102,9.30558 52.75385,14.04387 80.05,14 2.46,0 4.9,0 7.34,-0.1 2.44,-0.1 12.24,-0.42 18.2,-0.83 6.53063,-7.91757 12.65517,-16.16151 18.35,-24.7 1.82,-2.73333 3.59333,-5.49667 5.32,-8.29 -5.63,1.14 -15.15,2.85 -17.19,3.16 -10.59318,1.65198 -21.29878,2.4778 -32.02,2.47 z"
     id="path32"
     inkscape:connector-curvature="0"
     style="fill:#171717;fill-opacity:1"
     sodipodi:nodetypes="ccccccsccccc" />
  <path
     class="cls-8"
     d="m 283.33374,79.420006 c -10.15,11.14 2,28.299994 15.91,22.539994 v 0 c 1.90302,-0.76754 3.61109,-1.94952 5,-3.459994 24.79237,-27.342041 59.6114,-43.46343 96.5,-44.68 l -48.06,-19.77 c -26.59552,8.986458 -50.46289,24.600915 -69.35,45.37 z"
     id="path34"
     inkscape:connector-curvature="0"
     style="fill:#171717;fill-opacity:1"
     sodipodi:nodetypes="ccccccc" />
  <path
     class="cls-9"
     d="m 407.93374,326.96 c -75.71,1.46 -138.67,-59.74 -139.29,-135.46 -0.0629,-7.77265 0.52919,-15.53678 1.77,-23.21 0.72471,-7.44015 -4.46291,-14.16049 -11.84407,-15.34349 -7.38116,-1.183 -14.40917,3.57952 -16.04593,10.87349 -1.39786,8.56643 -2.11344,17.23031 -2.14,25.91 -0.38,90.56 73.24,164.96 163.79,165.56 22.33961,0.17286 44.479,-4.22031 65.06,-12.91 0.76,-0.31 6.27,-2.88 11,-5.13 4.06667,-10.44 7.69667,-21.27333 10.89,-32.5 0.88667,-3.14 1.74,-6.30667 2.56,-9.5 -4,2.78 -10.88,7.54 -12.34,8.53 -21.72308,14.64333 -47.21683,22.69326 -73.41,23.18 z"
     id="path36"
     inkscape:connector-curvature="0"
     style="fill:#171717;fill-opacity:1"
     sodipodi:nodetypes="cccsccccccccc" />
  <polygon
     class="cls-10"
     points="470.64,95.08 419.08,74.25 384.79,93.23 441.81,115.86 441.24,261.73 470.07,244.12 "
     id="polygon38"
     style="fill:#171717;fill-opacity:1"
     transform="translate(32.033735,5.3515625e-6)" />
</svg>
