<?xml version="1.0" encoding="UTF-8"?>
<svg width="893.62pt" height="738.13pt" preserveAspectRatio="xMidYMid" version="1.0" viewBox="0 0 893.62 738.13" xml:space="preserve" xmlns="http://www.w3.org/2000/svg">
  <style>
      path { fill: #000000; }
  </style>
  <path id="glitch the cat" transform="translate(-2.488,-3.37)" d="m797.89 3.4497c-3.5125 0.3-7.9867 1.5-15.387 3.75-12.7 3.8-34.6 14.7-51 25.2-4.4 2.9-9.301 6.0005-11.001 7.0005-5.7 3.5-17.999 13.1-33.199 25.8l-15.201 12.8h-31.9l-9.8994 9.4995-9.7998 9.3999 15.899 0.10107h15.8l-6.3999 7.1997c-3.6 4-7.5004 8.5997-8.9004 10.2-1.3 1.6-3.6998 4.4003-5.2998 6.3003l-2.7993 3.3003h-31.301l-5.6001 6.7998c-3 3.7-6.7998 8.4004-8.2998 10.4l-2.7993 3.7998h31.2l-3.3003 4.2993c-1.7 2.3-5.4002 7.7004-8.2002 11.9-2.7 4.2-5.6995 7.6992-6.4995 7.6992-1.3 0.1-9.0097-2.5664-13.5-3.8994-3.9903-1.1846-7.9469-2.4818-11.944-3.642-3.9789-1.1548-7.9659-2.2865-11.982-3.303-7.9836-2.0204-16.01-3.8784-24.073-5.5545-4.4808-0.93143-8.9689-1.8572-13.5-2.5005-13.034-1.8504-26.175-2.8907-39.3-3.9-6.6945-0.51476-13.403-0.84863-20.113-1.0987-6.7087-0.25001-13.423-0.41253-20.136-0.40132-6.7139 0.0112-13.428 0.20213-20.136 0.46863-6.7098 0.26655-13.418 0.62584-20.114 1.1304-13.422 1.0113-26.87 1.94-40.201 3.801-4.5326 0.63277-9.0192 1.5691-13.5 2.5005-8.0629 1.6761-16.09 3.5341-24.073 5.5545-4.0165 1.0165-8.0035 2.1482-11.982 3.303-3.9975 1.1602-7.954 2.4574-11.944 3.642-4.4903 1.333-12.2 3.9994-13.5 3.8994-0.8 0-3.6995-3.4992-6.4995-7.6992-7.3-11.1-18.3-25.701-26.6-35.401-4.1-4.7-9.3993-10.9-11.799-13.9-15.4-18.7-63.601-61.5-81.601-72.5-1.6-1-6.5995-4.1005-11-7.0005-16.3-10.5-38.3-21.399-51-25.299-13.8-4.1-18.801-4.6006-25-2.1006-10.1 3.9-14.599 7.401-21.899 17.001-7.8 10.2-16.301 26.8-25 48.7-13.5 34.3-18.3 54.799-20.7 89.799-1.1 16.7 0.1002 57.2 2.2002 74 0.5 4.4 1.3999 12.701 1.8999 18.501 3.9 43.5 16.2 96.399 28.5 122.5 1.8 3.8 3.5994 9.0005 3.8994 11.5 0.4 2.5 1.0996 6.5 1.5996 9 0.4 2.5-0.39904-3.4001 2.001 12 2.4 15.4 8.5443 42.851 15.5 63.5 7.6009 22.565 16.16 45.137 28.5 65.5 25.712 42.429 55.717 81.88 93.5 115.8 7.2179 6.4801 13.215 11.885 13.5 12.199 1.715 1.8865 22.703 17.496 28.5 21.201 13.603 8.6949 36.401 20.5 51.501 26.7 5.8 2.4 11.4 4.7002 12.5 5.2002 6.6 2.8 37.6 11.9 46.5 13.6 18.3 3.5 24.501 4.5003 38.5 6.3003 22.6 2.8 36.4 3.4995 67.5 3.4995h0.0161c22.916 0.23505 48.268-1.1428 67.5-3.4996 14-1.8 20.199-2.8003 38.499-6.3003 8.9-1.7 39.9-10.8 46.5-13.6 1.1-0.5 6.701-2.8002 12.501-5.2002 15.1-6.2 37.896-18.005 51.5-26.7 5.7967-3.7051 26.785-19.314 28.5-21.201 0.28539-0.31393 6.2821-5.7191 13.5-12.199 0.32312-0.29008 0.62285-0.59681 0.94483-0.8877 34.365-30.387 61.952-66.204 85.928-104.3 2.2254-3.5249 4.4644-7.0399 6.627-10.608 12.34-20.363 20.899-42.936 28.5-65.5 6.9553-20.648 13.101-48.099 15.501-63.5 0.34111-2.1888 0.27213-1.667 0.49658-3.0806 0.62854-3.8047 1.1525-6.8698 1.4312-8.5884 0.021-0.10111 0.0148 0.0248 0.0718-0.33105 0.5-2.5 1.1996-6.5 1.5996-9 9e-3 -0.0787 0.0492-0.20764 0.0615-0.29151 0.16802-1.1641 0.61692-2.8143 1.2217-4.6304 0.73011-2.1866 1.6656-4.5686 2.6177-6.5786 3.8074-8.0792 7.5848-18.907 11.143-31.049 0.44936-1.4866 0.83372-2.8296 1.2466-4.2686 0.63036-2.2493 1.2466-4.506 1.8574-6.8379 0.18856-0.73949 0.46714-1.6438 0.63575-2.3438 0.89999-3.6 2.0001-8.1005 2.6001-10 0.5-1.9 1.6005-6.9998 2.5005-11.3l1.5996-7.7007h27.7l0.60058-2.7993c0.4-1.5 1.2995-6.3995 1.9995-11l1.1997-8.2002h-27.7l0.60058-4.8003c0.3-2.6 1-8.1007 1.5-12.201 2.2-17.1 3.1001-28.7 4.1001-49.5 0.60001-12.1 1.4004-24.5 1.4004-24.5h20.6l-0.30029-10.299-0.3003-10.201-10.2-0.29883-10.301-0.3003v-4.8003c0-2.6-0.29912-7.5995-0.59912-11l-0.70019-6.1011h-24.7v-18h22v-2.499c0-2.5-2.3997-12.201-5.6997-23.5-8.5-28.9-24.201-64.5-34.701-78.5-7.8-10.4-13.101-14.7-23.101-18.4-3.55-1.35-6.0998-1.9509-9.6123-1.6509zm-115.5 74.55h32v19h-32v-9.501zm-48 46h30.999v21h-30.999v-10.5zm149 44h20v21h-20v-10.5zm-32 112h27.999v21.999h-27.999v-11zm-487.91 75.712c2.75 0.6875 6.4746 2.5372 12.475 5.8872 5.6 3.1 17.7 10.8 27 17.2 31.3 21.2 49.9 35.9 64.9 51l7.8999 8.1006-2.6997 5.3994c-3.2 6.5-13.6 16.8-21.7 21.4-25.2 14.2-58 14.3-79.6 0.0996-20.8-13.5-33.7-42.9-31.1-71 1.3-14.3 9.3997-32.7 16.2-37 2.1-1.3 3.8755-1.7744 6.6255-1.0869zm351.95 0c2.75-0.6875 4.5255-0.21309 6.6255 1.0869 6.8 4.3 14.9 22.701 16.2 37 2.6 28.1-10.3 57.5-31.1 71-21.6 14.2-54.4 14.1-79.6-0.0996-8.1-4.6-18.5-14.9-21.7-21.4l-2.6997-5.3994 7.8999-8.1006c15-15.1 33.6-29.8 64.9-51 9.3-6.4 21.4-14.1 27-17.2 6-3.35 9.7246-5.1997 12.475-5.8872zm-196.97 118.49c4.2567 0 8.9947 1.9583 13.994 4.793l7.0005 4.0005 7.0005-4.0005c9.3-4.6 18.985-6.7787 24.999-1.0005 3.168 3.0438 4.136 7.1018 4.0005 11.001-0.11398 3.281-2.0985 6.3241-4.0005 9-8.4708 11.917-32 30-32 30s-23.529-18.083-32-30c-1.902-2.6759-3.8865-5.719-4.0005-9-0.13546-3.8992 0.9646-8.0841 4.0005-11.001 3.007-2.8891 6.7487-3.7925 11.005-3.7925zm20.994 76.802c0.7 0 6.0001 2.201 11.9 5.001 16.8 7.6 35.199 12 50.799 12 8.1 0 19.8-3.3011 27.3-7.6011 8.6-4.9 16-7.5988 17.6-6.2988 4.4 3.6-0.4008 11.099-11.801 18.599-9.8 6.5-18.599 9.2004-32.899 10.4-25.6 2.1-45.701-3.5999-60.101-16.9l-2.798-2.6001-2.701 2.6001c-14.5 13.3-34.601 19-60.201 16.9-14.3-1.2-23.1-3.9004-32.9-10.4-11.4-7.5-16.199-14.999-11.799-18.599 1.6-1.3 9.0001 1.3988 17.6 6.2988 7.5 4.3 19.2 7.6011 27.3 7.6011 15.6 0 34.199-4.4 50.499-12 5.9-2.7 11.495-5.001 12.202-5.001z" stroke-width=".1"/>
</svg>
